# xmcd
#
# Track frame offsets:
#	150
#	8857
#	18461
#	26913
#	35160
#	43830
#	52704
#	61569
#	70401
#	80115
#	89080
#	99002
#	109164
#	118771
#	130243
#	139247
#	147117
#	158844
#	171298
#	181180
#	192155
#	201487
#	210974
#	221268
#	231778
#	241662
#	250189
#	260614
#	270543
#
# Disc length: 4256 seconds
#
# Revision: 1
# Processed by: cddbd v1.5.2PL0 Copyright (c) Steve Scherf et al.
# Submitted via: audiograbber 1.83.01
#
DISCID=9c109e1d
DTITLE=Johnny Cash - The Man In Black 1959-1962 Disc 2
DYEAR=1900
DGENRE=
TTITLE0=I´ll Remember You
TTITLE1=I Got Stripes
TTITLE2=You Dreamer You
TTITLE3=Five Feet High And Rising
TTITLE4=The Rebel Johnny Yuma
TTITLE5=Lorena.
TTITLE6=Second Honeymoon
TTITLE7=The Fable Of Willie Brown
TTITLE8=Smiling Bill Mccall
TTITLE9=Johnny Yuma Theme
TTITLE10=The Man On The Hill
TTITLE11=Hank And Joe And Me
TTITLE12=The Caretaker
TTITLE13=Clementine
TTITLE14=I Want To Go Home
TTITLE15=Old Apache Squaw
TTITLE16=Don´t Step On Mothers Roses
TTITLE17=My Grandfathers Clock
TTITLE18=I Couldnt Keep From Crying
TTITLE19=My Shoes Keep Walking Back To You
TTITLE20=I Will Miss You When You Go
TTITLE21=I Feel Better All Over
TTITLE22=Bandana
TTITLE23=Wabash Blues
TTITLE24=Viel Zu Spat
TTITLE25=Wo Ist Zuhause, Mama
TTITLE26=Heartbeat
TTITLE27=Hello Again
TTITLE28=A Day In The Grand Canyon
EXTD=
EXTT0=
EXTT1=
EXTT2=
EXTT3=
EXTT4=
EXTT5=
EXTT6=
EXTT7=
EXTT8=
EXTT9=
EXTT10=
EXTT11=
EXTT12=
EXTT13=
EXTT14=
EXTT15=
EXTT16=
EXTT17=
EXTT18=
EXTT19=
EXTT20=
EXTT21=
EXTT22=
EXTT23=
EXTT24=
EXTT25=
EXTT26=
EXTT27=
EXTT28=
PLAYORDER=
